# xmcd
#
# Track frame offsets:
#	150
#	90292
#	172374
#	225932
#
# Disc length: 4493 seconds
#
# Revision: 0
# Processed by: cddbd v1.5.2PL0 Copyright (c) Steve Scherf et al.
# Submitted via: EasyCDDAExtractor 16.0.6.1
#
DISCID=23118b04
DTITLE=Άνευ ερμηνευτού - Symphony No. 9-Beethoven, Georg Solti
DYEAR=1987
DGENRE=Κλασική
TTITLE0=Άνευ ερμηνευτού - Allegro ma non troppo, un poco maestoso
TTITLE1=Άνευ ερμηνευτού - Molto vivace
TTITLE2=Άνευ ερμηνευτού - Adagio molto e cantabile
TTITLE3=Χορός Συμφ. Σικάγο - Presto-Allegro assai-Andante maestoso-Allegro ene
TTITLE3=rgico
EXTD=
EXTT0=
EXTT1=
EXTT2=
EXTT3=
PLAYORDER=
